<svg xmlns="http://www.w3.org/2000/svg" xmlns:xlink="http://www.w3.org/1999/xlink" viewBox="0 0 51.18 20.72"><defs><style>.cls-1{fill:#ed1c24;}.cls-2{fill:url(#linear-gradient);}.cls-3{fill:url(#linear-gradient-2);}.cls-4{fill:url(#linear-gradient-3);}.cls-5{fill:#fff;}</style><linearGradient id="linear-gradient" x1="6.71" y1="-5.56" x2="25.29" y2="-5.56" gradientTransform="translate(-3.34 17.4) rotate(-25)" gradientUnits="userSpaceOnUse"><stop offset="0.68" stop-color="#ed1c24"/><stop offset="0.73" stop-color="#ee2524"/><stop offset="0.81" stop-color="#f03f22"/><stop offset="0.91" stop-color="#f36820"/><stop offset="0.99" stop-color="#f7931e"/></linearGradient><linearGradient id="linear-gradient-2" x1="3.89" y1="3.93" x2="25.28" y2="3.93" xlink:href="#linear-gradient"/><linearGradient id="linear-gradient-3" x1="20.61" y1="-4.65" x2="21.81" y2="-4.16" gradientTransform="translate(-3.34 17.4) rotate(-25)" gradientUnits="userSpaceOnUse"><stop offset="0.04" stop-color="#f7931e"/><stop offset="0.75" stop-color="#ed1c24"/></linearGradient></defs><title>Second Logo</title><g id="Layer_2" data-name="Layer 2"><g id="Layer_1-2" data-name="Layer 1"><path class="cls-1" d="M28,11.5l.64.48a3.13,3.13,0,0,1-1.22,1.3,3.4,3.4,0,0,1-1.75.45,3.26,3.26,0,0,1-2.4-1,3.32,3.32,0,0,1-.95-2.43,3.33,3.33,0,0,1,.95-2.44,3.22,3.22,0,0,1,2.4-1,3.34,3.34,0,0,1,1.63.4,3.14,3.14,0,0,1,1.2,1.12L27.8,9A2.2,2.2,0,0,0,26.92,8a2.52,2.52,0,0,0-1.28-.33,2.4,2.4,0,0,0-1.81.75,2.62,2.62,0,0,0-.71,1.89,2.61,2.61,0,0,0,.71,1.88,2.4,2.4,0,0,0,1.81.75A2.47,2.47,0,0,0,27,12.6,2.86,2.86,0,0,0,28,11.5Z"/><path class="cls-1" d="M30.41,13.56v-5h.79v4.28h3.71v.72Z"/><path class="cls-1" d="M36.29,13.56v-5h.8v5Z"/><path class="cls-1" d="M44.59,12.34a2.84,2.84,0,0,1-1.12,1,3.5,3.5,0,0,1-1.58.35A3.16,3.16,0,0,1,39.72,13a2.39,2.39,0,0,1-.85-1.89,2.41,2.41,0,0,1,.85-1.9,3.17,3.17,0,0,1,2.17-.76,3.61,3.61,0,0,1,1.49.31,2.89,2.89,0,0,1,1.08.87l-.63.44A1.94,1.94,0,0,0,43,9.38a2.63,2.63,0,0,0-1.13-.23,2.36,2.36,0,0,0-1.59.54,1.76,1.76,0,0,0-.63,1.38,1.73,1.73,0,0,0,.63,1.37,2.31,2.31,0,0,0,1.59.55,2.63,2.63,0,0,0,1.18-.26A2.41,2.41,0,0,0,44,11.9Z"/><path class="cls-1" d="M46.39,13.56v-5h.79v2.22l2.65-2.22h1l-2.1,1.78,2.42,3.21H50.3L48.21,10.8l-1,.88v1.88Z"/><path class="cls-2" d="M17.77,6.38c0-.1,0-.24,0-.27h0V6l.45-.23a.33.33,0,0,0,0-.58l-1.55-.64,0,0A6.85,6.85,0,0,0,8.08,2.63a8.14,8.14,0,0,0-3.7,10,.56.56,0,0,1-.26.69l-1.51.77A.11.11,0,0,1,2.47,14C.43,9.05,2.41,3.23,7,.93s9.93-.2,12.1,4.67a.13.13,0,0,1-.05.16Z"/><path class="cls-3" d="M19.1,5.71c2.11,5-.43,11.13-5.7,13.8S2.14,20.32,0,15.37l2.57-1.3C4.27,18,9,19.46,13.19,17.35s6.16-6.94,4.55-10.85l0-.09Z"/><path class="cls-4" d="M15,4.65c-.05.17-.3.26-.6.21l.09,0a.28.28,0,0,0,.11-.36.23.23,0,0,0-.32-.13.28.28,0,0,0-.12.36.25.25,0,0,0,.12.13l-.07,0c-.38-.12-.64-.39-.58-.6s.41-.28.78-.17S15.05,4.43,15,4.65Z"/><path class="cls-5" d="M14.39,4.86l-.11,0Z"/><path class="cls-5" d="M17.77,6.38s0,.1,0,.12l0-.09Z"/><path class="cls-5" d="M17.72,6a.07.07,0,0,1,0,0h0Z"/></g></g></svg>