<svg xmlns="http://www.w3.org/2000/svg" xmlns:xlink="http://www.w3.org/1999/xlink" viewBox="0 0 65.2 32.01"><defs><style>.cls-1{fill:url(#linear-gradient);}.cls-2{fill:url(#linear-gradient-2);}.cls-3{fill:url(#linear-gradient-3);}.cls-4{fill:#fff;}.cls-5{fill:url(#linear-gradient-4);}.cls-6{fill:url(#linear-gradient-5);}.cls-7{fill:url(#linear-gradient-6);}.cls-8{fill:url(#linear-gradient-7);}.cls-9{fill:url(#linear-gradient-8);}.cls-10{fill:url(#linear-gradient-9);}.cls-11{fill:url(#linear-gradient-10);}.cls-12{fill:url(#linear-gradient-11);}</style><linearGradient id="linear-gradient" x1="40.09" y1="-7.47" x2="59.71" y2="-7.47" gradientTransform="translate(-32.76 33.79) rotate(-25)" gradientUnits="userSpaceOnUse"><stop offset="0.68" stop-color="#ed1c24"/><stop offset="0.73" stop-color="#ee2524"/><stop offset="0.81" stop-color="#f03f22"/><stop offset="0.91" stop-color="#f36820"/><stop offset="0.99" stop-color="#f7931e"/></linearGradient><linearGradient id="linear-gradient-2" x1="37.11" y1="2.55" x2="59.71" y2="2.55" xlink:href="#linear-gradient"/><linearGradient id="linear-gradient-3" x1="54.77" y1="-6.51" x2="56.04" y2="-6" gradientTransform="translate(-32.76 33.79) rotate(-25)" gradientUnits="userSpaceOnUse"><stop offset="0.04" stop-color="#f7931e"/><stop offset="0.75" stop-color="#ed1c24"/></linearGradient><linearGradient id="linear-gradient-4" x1="18.59" y1="23.38" x2="32.32" y2="23.38" gradientTransform="matrix(1, 0, 0, 1, 0, 0)" xlink:href="#linear-gradient"/><linearGradient id="linear-gradient-5" x1="30.48" y1="23.41" x2="38.17" y2="23.41" gradientTransform="matrix(1, 0, 0, 1, 0, 0)" xlink:href="#linear-gradient"/><linearGradient id="linear-gradient-6" x1="36.5" y1="25.94" x2="43.88" y2="25.94" gradientTransform="matrix(1, 0, 0, 1, 0, 0)" xlink:href="#linear-gradient"/><linearGradient id="linear-gradient-7" x1="42.31" y1="25.94" x2="53.6" y2="25.94" gradientTransform="matrix(1, 0, 0, 1, 0, 0)" xlink:href="#linear-gradient"/><linearGradient id="linear-gradient-8" x1="51.74" y1="23.41" x2="65.2" y2="23.41" gradientTransform="matrix(1, 0, 0, 1, 0, 0)" xlink:href="#linear-gradient"/><linearGradient id="linear-gradient-9" x1="71.42" y1="15.11" x2="75.01" y2="15.11" xlink:href="#linear-gradient"/><linearGradient id="linear-gradient-10" x1="70.87" y1="16.94" x2="75.01" y2="16.94" xlink:href="#linear-gradient"/><linearGradient id="linear-gradient-11" x1="74.1" y1="15.28" x2="74.34" y2="15.38" xlink:href="#linear-gradient-3"/></defs><title>Third Logo</title><g id="Layer_2" data-name="Layer 2"><g id="Layer_1-2" data-name="Layer 1"><path class="cls-1" d="M18.77,6.74c0-.11,0-.25,0-.29h0V6.37l.47-.24a.34.34,0,0,0,0-.61l-1.63-.69s0,0,0,0a7.26,7.26,0,0,0-9-2A8.6,8.6,0,0,0,4.63,13.3a.6.6,0,0,1-.28.73l-1.59.81a.11.11,0,0,1-.15-.06C.45,9.56,2.55,3.41,7.34,1S17.82.77,20.12,5.92a.12.12,0,0,1-.05.16Z"/><path class="cls-2" d="M20.17,6c2.23,5.24-.45,11.76-6,14.57S2.27,21.46,0,16.23l2.72-1.37C4.51,19,9.53,20.55,13.94,18.32s6.5-7.32,4.8-11.46l0-.09Z"/><path class="cls-3" d="M15.84,4.91c-.05.18-.31.27-.63.22l.09,0a.29.29,0,0,0,.12-.38.24.24,0,0,0-.34-.13A.29.29,0,0,0,15,5a.27.27,0,0,0,.14.14l-.08,0c-.4-.13-.67-.41-.61-.63s.42-.3.82-.18S15.9,4.68,15.84,4.91Z"/><path class="cls-4" d="M15.2,5.13a.14.14,0,0,1-.11,0Z"/><path class="cls-4" d="M18.77,6.74a.49.49,0,0,0,0,.12l0-.09Z"/><path class="cls-4" d="M18.72,6.31a.13.13,0,0,1,0,.06h0Z"/><path class="cls-5" d="M20.17,30.36a7,7,0,0,1-1.58-5,11.28,11.28,0,0,1,1.26-5.21,10.82,10.82,0,0,1,3.36-3.92,7.61,7.61,0,0,1,4.44-1.47,5.15,5.15,0,0,1,3.28.89,2.91,2.91,0,0,1,1.12,2.42,4.47,4.47,0,0,1-.66,2.36,5.18,5.18,0,0,1-1.63,1.72,3.52,3.52,0,0,1-1.86.62,1,1,0,0,1-.61-.19.54.54,0,0,1-.24-.43,1,1,0,0,1,.09-.33,4.74,4.74,0,0,0,.67-2.08,1,1,0,0,0-.36-.87,1.45,1.45,0,0,0-1-.29,3.13,3.13,0,0,0-1.88.63,4.38,4.38,0,0,0-1.34,1.7,5.2,5.2,0,0,0-.48,2.18A3.55,3.55,0,0,0,24,25.82a4.88,4.88,0,0,0,3.38,1.07,7.53,7.53,0,0,0,2.3-.34,3,3,0,0,0,1.61-1.16.43.43,0,0,1,.37-.21.69.69,0,0,1,.54.28.43.43,0,0,1,.13.51,13.13,13.13,0,0,1-3.41,4.54A7.14,7.14,0,0,1,24.34,32,5.5,5.5,0,0,1,20.17,30.36Z"/><path class="cls-6" d="M30.48,29.35a12.32,12.32,0,0,1,.78-4l.51-1.49q1.23-3.55,1.89-5.24A11.52,11.52,0,0,1,35,16a1.93,1.93,0,0,1,1.53-1c.63,0,.94.29.94.86a3,3,0,0,1-.39,1.32,38.52,38.52,0,0,0-2.71,6.64,5.67,5.67,0,0,0-.28,1.53,1.31,1.31,0,0,0,.24.84,1.06,1.06,0,0,0,.85.3,2.21,2.21,0,0,0,1.88-1.18.42.42,0,0,1,.37-.21.75.75,0,0,1,.57.28.42.42,0,0,1,.1.51l-.44.85a24.4,24.4,0,0,1-1.26,2.34A7.22,7.22,0,0,1,34.84,31a3.34,3.34,0,0,1-2.16.78C31.21,31.73,30.48,30.94,30.48,29.35Z"/><path class="cls-7" d="M43.71,25.45a.71.71,0,0,0-.54-.27.43.43,0,0,0-.37.21,4.27,4.27,0,0,1-.75.87,1.34,1.34,0,0,1-.85.28,1,1,0,0,1-.76-.29,1.22,1.22,0,0,1-.28-.86,3,3,0,0,1,.08-.63c.06-.23.13-.49.22-.79a4.21,4.21,0,0,1,.19-.55c.18-.48.32-.89.41-1.23a3.5,3.5,0,0,0,.14-1c0-.69-.26-1-.79-1s-1.2.43-1.71,1.28a19.62,19.62,0,0,0-1.62,4,11.54,11.54,0,0,0-.58,3.45A3.85,3.85,0,0,0,37,31a1.77,1.77,0,0,0,1.62.78,3.07,3.07,0,0,0,2-.76,7.35,7.35,0,0,0,1.48-1.73c.39-.65.79-1.42,1.22-2.32.19-.42.36-.74.49-1A.42.42,0,0,0,43.71,25.45Z"/><path class="cls-8" d="M43.33,30.45a5.05,5.05,0,0,1-1-3.23A8.1,8.1,0,0,1,43,23.9a7,7,0,0,1,2.07-2.69,4.85,4.85,0,0,1,3.09-1.06,3.22,3.22,0,0,1,2.38.81,2.77,2.77,0,0,1,.81,2A3,3,0,0,1,51,24.55a2.37,2.37,0,0,1-.9.93,2.25,2.25,0,0,1-1.1.3,1.59,1.59,0,0,1-.88-.2.55.55,0,0,1-.33-.45.64.64,0,0,1,.17-.37,3.29,3.29,0,0,0,.26-.39,1.15,1.15,0,0,0,.11-.56.82.82,0,0,0-.23-.58,1,1,0,0,0-.72-.23,1.4,1.4,0,0,0-1.2.66,2.75,2.75,0,0,0-.45,1.59A2.16,2.16,0,0,0,46.52,27a2.86,2.86,0,0,0,1.91.63,4.82,4.82,0,0,0,2.2-.58,5.19,5.19,0,0,0,1.87-1.69.44.44,0,0,1,.37-.21.72.72,0,0,1,.57.28.42.42,0,0,1,.11.51,13.94,13.94,0,0,1-3.36,4.29,6.09,6.09,0,0,1-3.87,1.47A3.61,3.61,0,0,1,43.33,30.45Z"/><path class="cls-9" d="M51.74,29.35a12.09,12.09,0,0,1,.79-4L53,23.9q1.22-3.55,1.88-5.24A11.94,11.94,0,0,1,56.28,16a1.93,1.93,0,0,1,1.53-1c.62,0,.92.28.92.83a3.36,3.36,0,0,1-.37,1.35c-.24.55-.44,1-.58,1.25-.5,1.1-.9,2-1.19,2.72a14,14,0,0,0-.66,2.23.46.46,0,0,0,.12.44.57.57,0,0,0,.42.17.83.83,0,0,0,.43-.13.78.78,0,0,0,.31-.34A8.44,8.44,0,0,1,58.84,21a2.8,2.8,0,0,1,2-.87,2.1,2.1,0,0,1,1.52.52A1.79,1.79,0,0,1,62.93,22c0,1.57-1,2.36-2.87,2.36a1.22,1.22,0,0,0-.84.31,1.05,1.05,0,0,0-.28.73,1,1,0,0,0,.56.9,3.24,3.24,0,0,0,1.53.31c1.54,0,2.57-.39,3.08-1.18a.54.54,0,0,1,.49-.33.55.55,0,0,1,.41.22.72.72,0,0,1,.19.48.41.41,0,0,1,0,.21,2.82,2.82,0,0,0-.21.38l-.18.36a17.36,17.36,0,0,1-2.25,3.57,3.81,3.81,0,0,1-3,1.45,1.85,1.85,0,0,1-1.74-1,10.76,10.76,0,0,1-.93-3.52,1,1,0,0,0-.24-.6.6.6,0,0,0-.45-.21.62.62,0,0,0-.52.31,1.43,1.43,0,0,0-.22.85v1.76c0,1.64-.61,2.45-1.83,2.45S51.74,30.94,51.74,29.35Z"/><path class="cls-10" d="M41.71,16.68s0,0,0-.05h0l.09-.05a.06.06,0,0,0,0-.11l-.3-.12h0A1.34,1.34,0,0,0,39.83,16a1.57,1.57,0,0,0-.71,1.92.11.11,0,0,1,0,.14l-.29.15s0,0,0,0a2,2,0,0,1,.87-2.53,1.72,1.72,0,0,1,2.34.9s0,0,0,0Z"/><path class="cls-11" d="M42,16.55a2.14,2.14,0,0,1-1.1,2.67,1.84,1.84,0,0,1-2.59-.8l.5-.25a1.45,1.45,0,0,0,2,.63,1.7,1.7,0,0,0,.88-2.09v0Z"/><path class="cls-12" d="M41.17,16.35s-.06,0-.11,0h0a.06.06,0,0,0,0-.07s0,0-.07,0a.06.06,0,0,0,0,.07s0,0,0,0h0c-.07,0-.12-.07-.11-.11s.08-.06.15,0S41.18,16.31,41.17,16.35Z"/><path class="cls-4" d="M41.05,16.39h0Z"/><path class="cls-4" d="M41.71,16.68v0Z"/><path class="cls-4" d="M41.7,16.61h0Z"/></g></g></svg>