<svg xmlns="http://www.w3.org/2000/svg" viewBox="0 0 49.42 18.65"><defs><style>.cls-1,.cls-3{fill:#f15a24;}.cls-2{fill:#333;}.cls-3{stroke:#f15a24;stroke-miterlimit:10;stroke-width:0.03px;}.cls-4{fill:#ed1c24;}</style></defs><title>First Logo</title><g id="Layer_2" data-name="Layer 2"><g id="Layer_1-2" data-name="Layer 1"><path class="cls-1" d="M18,7.26H15.53a2,2,0,0,0-2-1.74H6.25a2,2,0,0,0-2,1.74H2a8.51,8.51,0,0,1,16,0Z"/><path class="cls-2" d="M15.55,7.47v0a2,2,0,0,1-2,2H6.25a2,2,0,0,1-2-2v0H1.9A8.5,8.5,0,1,0,18,7.47Z"/><circle class="cls-1" cx="0.43" cy="0.5" r="0.43"/><line class="cls-3" x1="0.32" y1="0.39" x2="3.36" y2="3.43"/><rect class="cls-3" x="3.51" y="3.3" width="0.34" height="0.92" transform="translate(-1.58 3.71) rotate(-45)"/><circle class="cls-1" cx="19.41" cy="0.43" r="0.43"/><line class="cls-3" x1="19.53" y1="0.32" x2="16.48" y2="3.36"/><rect class="cls-3" x="15.98" y="3.23" width="0.34" height="0.92" transform="translate(24.97 17.72) rotate(-135)"/><circle class="cls-1" cx="6.06" cy="7.57" r="0.47"/><circle class="cls-1" cx="13.58" cy="7.57" r="0.47"/><path class="cls-1" d="M11.67,8.49a4.45,4.45,0,0,1-3.4,0A.56.56,0,0,1,8,8H8c0-.18.14-.25.31-.18a4.45,4.45,0,0,0,3.4,0c.17-.07.31,0,.31.18h0A.56.56,0,0,1,11.67,8.49Z"/><path class="cls-1" d="M10.12,10.94H4.48a5.64,5.64,0,0,0,11.27,0Z"/><path class="cls-4" d="M26.21,10.48l.65.48a3.13,3.13,0,0,1-1.22,1.3,3.35,3.35,0,0,1-1.76.46,3.22,3.22,0,0,1-2.4-1,3.32,3.32,0,0,1-.94-2.43,3.27,3.27,0,0,1,.95-2.43,3.22,3.22,0,0,1,2.39-1,3.48,3.48,0,0,1,1.64.39,3.14,3.14,0,0,1,1.2,1.12L26,7.93A2.18,2.18,0,0,0,25.17,7a2.58,2.58,0,0,0-1.29-.33,2.38,2.38,0,0,0-1.8.75,2.62,2.62,0,0,0-.72,1.89,2.62,2.62,0,0,0,.72,1.89,2.4,2.4,0,0,0,1.8.74,2.5,2.5,0,0,0,1.36-.37A2.79,2.79,0,0,0,26.21,10.48Z"/><path class="cls-4" d="M28.66,12.55v-5h.78v4.29h3.72v.72Z"/><path class="cls-4" d="M34.54,12.55v-5h.8v5Z"/><path class="cls-4" d="M42.84,11.32a2.87,2.87,0,0,1-1.13,1,3.37,3.37,0,0,1-1.58.35A3.18,3.18,0,0,1,38,12a2.55,2.55,0,0,1,0-3.8,3.18,3.18,0,0,1,2.17-.75,3.43,3.43,0,0,1,1.49.31,2.58,2.58,0,0,1,1.08.87L42.08,9a2,2,0,0,0-.82-.66,2.75,2.75,0,0,0-1.13-.23,2.31,2.31,0,0,0-1.59.55,1.73,1.73,0,0,0-.63,1.37,1.71,1.71,0,0,0,.64,1.37,2.31,2.31,0,0,0,1.58.55,2.35,2.35,0,0,0,2.08-1.08Z"/><path class="cls-4" d="M44.64,12.55v-5h.78V9.78l2.65-2.23h1L47,9.33l2.41,3.22h-.88L46.46,9.79l-1,.87v1.89Z"/></g></g></svg>